<svg xmlns="http://www.w3.org/2000/svg" viewBox="0 0 840.816 1214.8902"><defs><style>.cls-1{fill:#e6e7e8;stroke:#e6e7e8;stroke-width:40px;}.cls-2{fill:#af1116;}.cls-3{fill:#eae3b1;}.cls-4{fill:#201d0f;opacity:0.05;}.cls-5{fill:#5d373b;}.cls-10,.cls-6{fill:#230000;}.cls-6{opacity:0.3;}.cls-7{fill:#cd2735;}.cls-8{opacity:0.07;}.cls-9{fill:#8d575d;opacity:0.5;}.cls-10{opacity:0.2;}</style></defs><g id="Layer_6" data-name="Layer 6"><polygon class="cls-1" points="816 1022.545 820 1022.545 800 522.545 780 22.545 465.147 22.545 281.11 22.545 160 22.545 100 22.545 100 27.545 90.056 26.302 60 22.545 20 1022.545 20 1092.545 20 1102.545 20 1112.545 20 1122.545 90 1112.545 90 1117.545 90 1122.545 130 1122.545 130 1182.545 220 1192.545 220 1122.545 820 1122.545 816 1022.545"/></g><g id="Layer_3" data-name="Layer 3"><polygon class="cls-2" points="820 1122.545 90 1122.545 90 1112.545 20 1122.545 60 122.545 780 122.545 820 1122.545"/><rect class="cls-3" x="90" y="1022.5449" width="720" height="95"/><polygon class="cls-3" points="90 1102.545 70 1105.402 70 1022.545 110 1022.545 90 1102.545"/><polygon class="cls-4" points="810 1072.545 70 1102.545 70 1022.545 810 1022.545 810 1072.545"/><polygon class="cls-4" points="810 1052.545 70 1082.545 70 1022.545 810 1022.545 810 1052.545"/><polygon class="cls-4" points="810 1032.545 70 1053.1 70 1022.545 810 1022.545 810 1032.545"/><polygon class="cls-5" points="220 1192.545 130 1182.545 130 1072.545 220 1072.545 220 1192.545"/><polygon class="cls-6" points="20 1022.545 20 1112.545 70 1105.402 80 1031.116 80 1022.545 20 1022.545"/><polygon class="cls-6" points="20 1022.545 20 1102.545 70 1088.259 70 1029.688 70 1022.545 20 1022.545"/><polygon class="cls-6" points="20 1022.545 20 1092.545 70 1071.116 70 1029.688 70 1022.545 20 1022.545"/><polygon class="cls-7" points="20 1022.545 20 1122.545 30 1121.116 30 1023.295 20 1022.545"/><polygon class="cls-7" points="820 1022.545 90 1022.545 90 1032.545 20 1022.545 60 22.545 100 27.545 100 22.545 780 22.545 820 1022.545"/><polygon class="cls-8" points="100 27.545 90 1022.545 50.104 1016.846 90.056 26.302 100 27.545"/><polygon class="cls-9" points="210 1182.545 140 1172.545 140 1162.545 210 1132.545 210 1182.545"/><polygon class="cls-8" points="820 1022.545 318.101 1022.545 160 22.545 780 22.545 820 1022.545"/><polygon class="cls-8" points="820 1022.545 730.284 1022.545 281.11 22.545 780 22.545 820 1022.545"/><polygon class="cls-8" points="800 522.545 465.147 22.545 780 22.545 800 522.545"/><polygon class="cls-10" points="90 1022.545 90 1032.545 730.284 1022.545 90 1022.545"/></g></svg>